<svg width="50.45" height="17.975" viewBox="0 0 90.45 17.975" xmlns="http://www.w3.org/2000/svg"><g id="svgGroup" stroke-linecap="round" fill-rule="nonzero" font-size="9pt" stroke="#f70606" stroke-width="0.5mm" fill="#f50000" style="stroke:#f70606;stroke-width:0.5mm;fill:#f50000"><path d="M 7.7 17.675 L 4.75 17.675 L 0 0.75 L 2.35 0 L 6.3 15.15 L 10.025 2 L 13 2 L 16.7 15.15 L 20.625 0.075 L 22.825 0.75 L 18.1 17.675 L 15.15 17.675 L 11.45 4.525 L 7.7 17.675 Z M 35.725 12.1 L 26.625 12.1 A 6.022 6.022 0 0 0 26.91 13.356 Q 27.207 14.205 27.76 14.806 A 3.745 3.745 0 0 0 27.9 14.95 A 3.536 3.536 0 0 0 29.806 15.903 A 5.005 5.005 0 0 0 30.675 15.975 Q 31.8 15.975 32.7 15.738 Q 33.6 15.5 34.425 15.125 L 34.95 17.05 A 10.192 10.192 0 0 1 33.866 17.456 A 12.966 12.966 0 0 1 32.925 17.713 Q 31.8 17.975 30.4 17.975 Q 27.6 17.975 25.963 16.188 A 5.88 5.88 0 0 1 24.661 13.803 Q 24.409 12.928 24.346 11.887 A 11.781 11.781 0 0 1 24.325 11.175 A 8.84 8.84 0 0 1 24.533 9.22 A 7.21 7.21 0 0 1 25.062 7.687 A 6.16 6.16 0 0 1 26.317 5.917 A 5.722 5.722 0 0 1 27.125 5.262 A 5.262 5.262 0 0 1 29.69 4.395 A 6.551 6.551 0 0 1 30.2 4.375 A 7.138 7.138 0 0 1 31.568 4.499 Q 32.404 4.662 33.071 5.04 A 4.303 4.303 0 0 1 33.312 5.188 Q 34.55 6 35.175 7.375 A 7.046 7.046 0 0 1 35.782 9.841 A 8.359 8.359 0 0 1 35.8 10.4 A 18.801 18.801 0 0 1 35.727 12.074 A 17.613 17.613 0 0 1 35.725 12.1 Z M 26.6 10.275 L 33.725 10.275 A 6.089 6.089 0 0 0 33.624 9.129 Q 33.415 8.041 32.775 7.35 A 3.122 3.122 0 0 0 31.035 6.406 A 4.599 4.599 0 0 0 30.15 6.325 A 3.395 3.395 0 0 0 28.872 6.559 A 3.131 3.131 0 0 0 27.75 7.337 A 3.791 3.791 0 0 0 27.015 8.51 Q 26.804 9.025 26.688 9.655 A 8.005 8.005 0 0 0 26.6 10.275 Z M 90.375 12.1 L 81.275 12.1 A 6.022 6.022 0 0 0 81.56 13.356 Q 81.857 14.205 82.41 14.806 A 3.745 3.745 0 0 0 82.55 14.95 A 3.536 3.536 0 0 0 84.456 15.903 A 5.005 5.005 0 0 0 85.325 15.975 Q 86.45 15.975 87.35 15.738 Q 88.25 15.5 89.075 15.125 L 89.6 17.05 A 10.192 10.192 0 0 1 88.516 17.456 A 12.966 12.966 0 0 1 87.575 17.713 Q 86.45 17.975 85.05 17.975 Q 82.25 17.975 80.613 16.188 A 5.88 5.88 0 0 1 79.311 13.803 Q 79.059 12.928 78.996 11.887 A 11.781 11.781 0 0 1 78.975 11.175 A 8.84 8.84 0 0 1 79.183 9.22 A 7.21 7.21 0 0 1 79.712 7.687 A 6.16 6.16 0 0 1 80.967 5.917 A 5.722 5.722 0 0 1 81.775 5.262 A 5.262 5.262 0 0 1 84.34 4.395 A 6.551 6.551 0 0 1 84.85 4.375 A 7.138 7.138 0 0 1 86.218 4.499 Q 87.054 4.662 87.721 5.04 A 4.303 4.303 0 0 1 87.962 5.188 Q 89.2 6 89.825 7.375 A 7.046 7.046 0 0 1 90.432 9.841 A 8.359 8.359 0 0 1 90.45 10.4 A 18.801 18.801 0 0 1 90.377 12.074 A 17.613 17.613 0 0 1 90.375 12.1 Z M 81.25 10.275 L 88.375 10.275 A 6.089 6.089 0 0 0 88.274 9.129 Q 88.065 8.041 87.425 7.35 A 3.122 3.122 0 0 0 85.685 6.406 A 4.599 4.599 0 0 0 84.8 6.325 A 3.395 3.395 0 0 0 83.522 6.559 A 3.131 3.131 0 0 0 82.4 7.337 A 3.791 3.791 0 0 0 81.665 8.51 Q 81.454 9.025 81.338 9.655 A 8.005 8.005 0 0 0 81.25 10.275 Z M 72.35 17.675 L 70 17.675 L 64.775 5.275 L 66.825 4.425 L 71.25 15.125 L 75.675 4.425 L 77.6 5.275 L 72.35 17.675 Z M 49.45 17.675 L 39.05 17.675 L 39.05 0.175 L 41.425 0.175 L 41.425 15.55 L 49.45 15.55 L 49.45 17.675 Z M 54.89 17.64 A 6.14 6.14 0 0 1 53.725 17.113 Q 52.25 16.25 51.413 14.713 A 6.863 6.863 0 0 1 50.641 12.263 A 8.705 8.705 0 0 1 50.575 11.175 A 8.751 8.751 0 0 1 50.738 9.448 A 6.506 6.506 0 0 1 51.425 7.55 Q 52.275 6.025 53.75 5.2 Q 55.225 4.375 57.05 4.375 A 6.934 6.934 0 0 1 59.177 4.693 A 6.212 6.212 0 0 1 60.337 5.2 Q 61.8 6.025 62.663 7.538 A 6.449 6.449 0 0 1 63.404 9.648 A 8.635 8.635 0 0 1 63.525 11.125 A 8.546 8.546 0 0 1 63.338 12.952 A 6.564 6.564 0 0 1 62.675 14.737 Q 61.825 16.275 60.363 17.125 A 6.314 6.314 0 0 1 57.619 17.954 A 7.682 7.682 0 0 1 57.05 17.975 A 6.804 6.804 0 0 1 54.89 17.64 Z M 57.05 15.975 Q 59.025 15.975 60.125 14.638 Q 61.225 13.3 61.225 11.175 A 5.344 5.344 0 0 0 60.919 9.353 A 5.004 5.004 0 0 0 60.675 8.788 A 4.799 4.799 0 0 0 59.632 7.395 A 4.543 4.543 0 0 0 59.187 7.038 Q 58.25 6.375 57.05 6.375 A 4.812 4.812 0 0 0 55.743 6.543 A 3.509 3.509 0 0 0 53.975 7.675 A 4.47 4.47 0 0 0 53.057 9.518 Q 52.892 10.183 52.877 10.962 A 8.217 8.217 0 0 0 52.875 11.125 Q 52.875 12.425 53.425 13.538 Q 53.975 14.65 54.913 15.313 Q 55.85 15.975 57.05 15.975 Z" vector-effect="non-scaling-stroke"/></g></svg>