<svg width="199.8" height="71.901" viewBox="0 0 354.8 71.901" xmlns="http://www.w3.org/2000/svg"><g id="svgGroup" stroke-linecap="round" fill-rule="evenodd" font-size="9pt" stroke="#ff0000" stroke-width="0.25mm" fill="#f70505" style="stroke:#ff0000;stroke-width:0.25mm;fill:#f70505"><path d="M 30.8 70.7 L 19 70.7 L 0 3 L 9.4 0 L 25.2 60.6 L 40.1 8 L 52 8 L 66.8 60.6 L 82.5 0.3 L 91.3 3 L 72.4 70.7 L 60.6 70.7 L 45.8 18.1 L 30.8 70.7 Z M 139.9 48.4 L 103.5 48.4 A 24.088 24.088 0 0 0 104.639 53.425 Q 105.975 57.238 108.6 59.8 Q 112.8 63.9 119.7 63.9 Q 124.2 63.9 127.8 62.95 Q 131.4 62 134.7 60.5 L 136.8 68.2 A 40.77 40.77 0 0 1 132.465 69.826 A 51.863 51.863 0 0 1 128.7 70.85 A 38.914 38.914 0 0 1 123.608 71.669 A 52.025 52.025 0 0 1 118.6 71.9 A 28.318 28.318 0 0 1 110.854 70.895 A 21.108 21.108 0 0 1 100.85 64.75 A 23.521 23.521 0 0 1 95.645 55.21 Q 94.3 50.545 94.3 44.7 A 35.359 35.359 0 0 1 95.133 36.878 A 28.84 28.84 0 0 1 97.25 30.75 A 24.642 24.642 0 0 1 102.266 23.668 A 22.887 22.887 0 0 1 105.5 21.05 A 21.048 21.048 0 0 1 115.759 17.578 A 26.205 26.205 0 0 1 117.8 17.5 Q 125.3 17.5 130.25 20.75 Q 135.2 24 137.7 29.5 A 28.185 28.185 0 0 1 140.126 39.364 A 33.434 33.434 0 0 1 140.2 41.6 A 75.204 75.204 0 0 1 139.909 48.297 A 69.426 69.426 0 0 1 139.9 48.4 Z M 354.5 48.4 L 318.1 48.4 A 24.088 24.088 0 0 0 319.239 53.425 Q 320.575 57.238 323.2 59.8 Q 327.4 63.9 334.3 63.9 Q 338.8 63.9 342.4 62.95 Q 346 62 349.3 60.5 L 351.4 68.2 A 40.77 40.77 0 0 1 347.065 69.826 A 51.863 51.863 0 0 1 343.3 70.85 A 38.914 38.914 0 0 1 338.208 71.669 A 52.025 52.025 0 0 1 333.2 71.9 A 28.318 28.318 0 0 1 325.454 70.895 A 21.108 21.108 0 0 1 315.45 64.75 A 23.521 23.521 0 0 1 310.245 55.21 Q 308.9 50.545 308.9 44.7 A 35.359 35.359 0 0 1 309.733 36.878 A 28.84 28.84 0 0 1 311.85 30.75 A 24.642 24.642 0 0 1 316.866 23.668 A 22.887 22.887 0 0 1 320.1 21.05 A 21.048 21.048 0 0 1 330.359 17.578 A 26.205 26.205 0 0 1 332.4 17.5 Q 339.9 17.5 344.85 20.75 Q 349.8 24 352.3 29.5 A 28.185 28.185 0 0 1 354.726 39.364 A 33.434 33.434 0 0 1 354.8 41.6 A 75.204 75.204 0 0 1 354.509 48.297 A 69.426 69.426 0 0 1 354.5 48.4 Z M 284.4 70.7 L 275 70.7 L 254.1 21.1 L 262.3 17.7 L 280 60.5 L 297.7 17.7 L 305.4 21.1 L 284.4 70.7 Z M 194.8 70.7 L 153.2 70.7 L 153.2 0.7 L 162.7 0.7 L 162.7 62.2 L 194.8 62.2 L 194.8 70.7 Z M 211.9 68.45 A 24.559 24.559 0 0 0 216.498 70.54 Q 220.553 71.9 225.2 71.9 Q 232.6 71.9 238.45 68.5 Q 244.3 65.1 247.7 58.95 A 26.255 26.255 0 0 0 250.353 51.809 A 34.184 34.184 0 0 0 251.1 44.5 A 34.542 34.542 0 0 0 250.615 38.591 A 25.795 25.795 0 0 0 247.65 30.15 Q 244.2 24.1 238.35 20.8 A 24.848 24.848 0 0 0 233.709 18.773 A 27.738 27.738 0 0 0 225.2 17.5 A 31.325 31.325 0 0 0 223.62 17.539 A 26.169 26.169 0 0 0 212 20.8 Q 206.1 24.1 202.7 30.2 A 26.023 26.023 0 0 0 199.951 37.79 A 35.006 35.006 0 0 0 199.3 44.7 A 34.82 34.82 0 0 0 199.565 49.054 A 27.451 27.451 0 0 0 202.65 58.85 Q 206 65 211.9 68.45 Z M 225.2 63.9 Q 233.1 63.9 237.5 58.55 A 18.802 18.802 0 0 0 241.319 50.46 A 27.105 27.105 0 0 0 241.9 44.7 Q 241.9 39.5 239.7 35.15 A 19.198 19.198 0 0 0 235.528 29.581 A 18.17 18.17 0 0 0 233.75 28.15 Q 230 25.5 225.2 25.5 A 19.249 19.249 0 0 0 219.974 26.172 A 14.037 14.037 0 0 0 212.9 30.7 A 17.878 17.878 0 0 0 209.226 38.074 Q 208.5 41.006 208.5 44.5 Q 208.5 49.7 210.7 54.15 A 19.437 19.437 0 0 0 214.23 59.19 A 17.627 17.627 0 0 0 216.65 61.25 Q 220.4 63.9 225.2 63.9 Z M 103.4 41.1 L 131.9 41.1 A 24.355 24.355 0 0 0 131.496 36.515 Q 131 33.931 129.896 31.907 A 12.422 12.422 0 0 0 128.1 29.4 A 12.488 12.488 0 0 0 121.139 25.624 A 18.395 18.395 0 0 0 117.6 25.3 A 13.58 13.58 0 0 0 112.488 26.235 A 12.524 12.524 0 0 0 108 29.35 Q 104.2 33.4 103.4 41.1 Z M 318 41.1 L 346.5 41.1 A 24.355 24.355 0 0 0 346.096 36.515 Q 345.6 33.931 344.496 31.907 A 12.422 12.422 0 0 0 342.7 29.4 A 12.488 12.488 0 0 0 335.739 25.624 A 18.395 18.395 0 0 0 332.2 25.3 A 13.58 13.58 0 0 0 327.088 26.235 A 12.524 12.524 0 0 0 322.6 29.35 Q 318.8 33.4 318 41.1 Z" vector-effect="non-scaling-stroke"/></g></svg>